<?xml version="1.0" standalone="no"?>
<!DOCTYPE svg PUBLIC "-//W3C//DTD SVG 20010904//EN"
 "http://www.w3.org/TR/2001/REC-SVG-20010904/DTD/svg10.dtd">
<svg version="1.0" xmlns="http://www.w3.org/2000/svg"
 width="1024.000000pt" height="1024.000000pt" viewBox="0 0 1024.000000 1024.000000"
 preserveAspectRatio="xMidYMid meet">
<metadata>
Created by potrace 1.14, written by Peter Selinger 2001-2017
</metadata>
<g transform="translate(0.000000,1024.000000) scale(0.100000,-0.100000)"
fill="#000000" stroke="none">
<path d="M1877 9184 c-1 -2 -25 -5 -52 -9 -137 -16 -346 -110 -440 -196 -84
-78 -106 -101 -147 -154 -71 -93 -129 -208 -154 -310 -33 -128 -34 -158 -34
-1005 0 -785 2 -851 19 -935 38 -184 112 -324 241 -454 95 -96 103 -103 177
-148 71 -44 238 -115 261 -112 4 1 9 0 12 -1 3 -1 14 -4 25 -7 11 -4 337 -8
724 -9 387 -2 705 -5 707 -6 1 -2 4 -84 7 -183 4 -149 9 -192 27 -249 55 -174
165 -317 323 -423 37 -24 73 -46 80 -47 6 -1 17 -5 23 -9 21 -13 137 -46 145
-41 4 2 10 1 12 -3 3 -5 531 -8 1174 -8 642 0 1193 -3 1223 -8 77 -11 188 -67
243 -123 80 -79 135 -224 132 -343 l-1 -45 -714 -1 c-393 -1 -737 -5 -765 -9
-69 -11 -183 -50 -264 -90 -163 -80 -310 -225 -394 -388 -45 -86 -54 -111 -86
-243 -11 -44 -20 -81 -20 -82 -1 -2 -1 -93 -1 -203 l0 -200 -97 0 c-202 0
-335 -63 -432 -205 -23 -33 -62 -119 -67 -147 -1 -5 -2 -9 -4 -10 -1 -2 -3
-39 -4 -83 -6 -182 93 -346 254 -423 82 -39 100 -42 234 -47 59 -2 110 -6 112
-8 2 -2 4 -88 4 -191 1 -103 5 -210 11 -239 17 -93 18 -100 35 -151 82 -249
291 -469 539 -567 17 -7 32 -13 35 -14 20 -6 100 -28 120 -34 35 -9 3346 -8
3395 1 66 12 181 54 253 93 246 133 415 364 467 639 10 53 15 143 15 273 l1
193 32 0 c175 2 237 13 322 55 109 55 181 134 226 246 11 30 20 55 20 57 -1 1
-1 3 0 5 11 35 13 134 4 175 -3 12 -7 30 -9 40 -25 112 -129 237 -241 292 -83
40 -133 49 -252 50 l-103 0 0 193 c0 105 -2 201 -4 212 -2 11 -7 40 -12 65
-10 57 -7 45 -28 114 -65 217 -251 435 -456 533 -71 34 -140 62 -140 57 0 -3
-9 0 -20 6 -54 29 -155 33 -880 35 -410 2 -749 3 -755 4 -6 1 -9 33 -7 81 5
149 -53 332 -141 444 -41 53 -143 155 -184 183 -83 59 -209 109 -302 121 -31
4 -576 7 -1211 6 -899 0 -1166 2 -1204 12 -111 29 -215 103 -270 191 -51 84
-68 156 -71 306 l-2 137 36 0 c20 0 379 1 798 1 629 1 772 3 820 15 84 21 205
65 224 80 8 8 19 14 23 14 18 0 144 92 197 143 122 117 231 307 255 442 1 11
7 34 11 50 4 17 8 437 8 935 l0 905 -23 79 c-28 96 -77 206 -127 281 -32 48
-153 178 -196 210 -61 46 -187 119 -209 120 -3 0 -11 4 -18 9 -16 10 -98 34
-167 48 -34 7 -575 11 -1673 13 -892 0 -1624 0 -1625 -1z m1000 -1960 c17 -3
52 -22 79 -42 99 -74 133 -206 79 -311 -26 -53 -98 -121 -126 -121 -10 0 -20
-4 -23 -8 -3 -5 -33 -10 -66 -11 -68 -2 -149 28 -189 70 -46 49 -75 128 -72
194 2 37 32 125 43 125 4 0 8 5 8 11 0 16 39 47 95 74 50 25 111 31 172 19z
m1043 -18 c115 -64 168 -186 130 -301 -58 -175 -281 -233 -413 -107 -26 24
-61 77 -56 84 2 2 -4 14 -11 28 -15 28 -15 100 1 150 18 55 77 120 133 147 64
30 161 29 216 -1z m1022 -16 c72 -48 109 -105 115 -180 7 -78 -10 -139 -55
-191 -91 -107 -252 -119 -356 -28 -109 96 -116 257 -17 359 59 61 107 80 193
77 59 -1 74 -6 120 -37z m897 -4061 c166 -38 306 -183 343 -352 6 -28 8 -88 5
-133 -12 -195 -163 -369 -357 -413 -25 -6 -81 -9 -125 -7 -122 6 -225 54 -312
146 -37 40 -94 135 -99 165 -1 5 -7 30 -14 54 -15 57 -11 152 11 224 71 236
307 372 548 316z m2151 -6 c187 -50 330 -234 331 -427 0 -94 -9 -135 -45 -211
-42 -89 -121 -171 -204 -214 -129 -66 -277 -66 -417 0 -64 30 -174 140 -205
204 -73 155 -60 332 36 470 35 52 126 135 147 135 6 0 18 6 26 13 25 20 90 40
156 47 68 7 96 5 175 -17z"/>
</g>
</svg>
